<?xml version="1.0" encoding="UTF-8" standalone="no"?>
<!DOCTYPE svg PUBLIC "-//W3C//DTD SVG 1.1//EN" "http://www.w3.org/Graphics/SVG/1.1/DTD/svg11.dtd">
<svg width="100%" height="100%" viewBox="0 0 100 100" version="1.1" xmlns="http://www.w3.org/2000/svg" xmlns:xlink="http://www.w3.org/1999/xlink" xml:space="preserve" xmlns:serif="http://www.serif.com/" style="fill-rule:evenodd;clip-rule:evenodd;stroke-linejoin:round;stroke-miterlimit:2;">
    <g transform="matrix(3.38514,0,0,2.38285,-108.461,-70.7056)">
        <ellipse cx="46.811" cy="50.656" rx="14.77" ry="20.983" style="fill:white;"/>
    </g>
    <g id="joystick.svg" transform="matrix(0.146484,0,0,0.146484,50,50)">
        <g transform="matrix(1,0,0,1,-256,-256)">
            <g transform="matrix(0.1,0,0,-0.1,0,512)">
                <path d="M1140,4259C1049,4249 917,4209 835,4168C637,4068 460,3870 386,3662C342,3539 216,2945 170,2645C115,2284 96,1916 119,1687C151,1382 240,1166 391,1027C591,841 905,802 1140,932C1333,1040 1496,1237 1648,1551L1725,1709L1790,1710C1929,1711 2097,1776 2203,1869L2261,1920L2862,1920L2918,1870C3021,1778 3195,1711 3331,1709L3395,1709L3472,1552C3701,1081 3959,859 4275,857C4592,856 4827,1035 4934,1360C4985,1517 5001,1626 5007,1867C5016,2199 4979,2533 4880,3028C4751,3678 4710,3792 4541,3972C4382,4142 4196,4234 3962,4260C3651,4294 3321,4150 3140,3901L3095,3840L2025,3840L1980,3901C1797,4152 1457,4298 1140,4259ZM1299,3820C1364,3788 1384,3742 1388,3623L1392,3520L1487,3520C1561,3520 1589,3516 1619,3500C1700,3459 1729,3354 1681,3276C1645,3218 1598,3200 1487,3200L1392,3200L1388,3097C1384,2977 1364,2933 1297,2899C1223,2861 1144,2885 1093,2960C1073,2989 1070,3006 1070,3096L1070,3198L961,3202C869,3204 847,3208 823,3226C725,3299 725,3421 823,3494C847,3512 869,3516 961,3518L1070,3522L1070,3621C1070,3727 1079,3757 1122,3797C1171,3843 1238,3852 1299,3820ZM3978,3813C4101,3722 4056,3540 3908,3523C3741,3504 3670,3733 3816,3818C3864,3846 3937,3844 3978,3813ZM3658,3493C3781,3402 3736,3220 3588,3203C3421,3184 3350,3413 3496,3498C3544,3526 3617,3524 3658,3493ZM4298,3493C4394,3422 4394,3298 4300,3228C4235,3180 4129,3201 4083,3272C4009,3382 4093,3528 4223,3517C4250,3515 4283,3504 4298,3493ZM3978,3173C4074,3102 4074,2978 3980,2908C3915,2860 3809,2881 3763,2952C3689,3062 3773,3208 3903,3197C3930,3195 3963,3184 3978,3173ZM1925,2733C1998,2695 2063,2628 2098,2552C2121,2503 2125,2482 2125,2400C2125,2318 2121,2297 2098,2248C2063,2172 2003,2110 1928,2069C1868,2036 1860,2035 1760,2035C1664,2035 1650,2037 1602,2063C1526,2103 1463,2164 1427,2235C1397,2291 1395,2302 1395,2400C1395,2496 1397,2510 1424,2560C1460,2631 1522,2695 1585,2727C1661,2766 1678,2770 1775,2767C1853,2764 1873,2759 1925,2733ZM3525,2733C3598,2695 3663,2628 3698,2552C3721,2503 3725,2482 3725,2400C3725,2318 3721,2297 3698,2248C3663,2172 3603,2110 3528,2069C3468,2036 3460,2035 3360,2035C3264,2035 3250,2037 3202,2063C3126,2103 3063,2164 3027,2235C2997,2291 2995,2302 2995,2400C2995,2496 2997,2510 3024,2560C3060,2631 3122,2695 3185,2727C3261,2766 3278,2770 3375,2767C3453,2764 3473,2759 3525,2733Z" style="fill-rule:nonzero;"/>
            </g>
        </g>
    </g>
</svg>
