<?xml version="1.0" encoding="UTF-8" standalone="no"?>
<!DOCTYPE svg PUBLIC "-//W3C//DTD SVG 1.1//EN" "http://www.w3.org/Graphics/SVG/1.1/DTD/svg11.dtd">
<svg width="100%" height="100%" viewBox="0 0 100 100" version="1.1" xmlns="http://www.w3.org/2000/svg" xmlns:xlink="http://www.w3.org/1999/xlink" xml:space="preserve" xmlns:serif="http://www.serif.com/" style="fill-rule:evenodd;clip-rule:evenodd;stroke-linejoin:round;stroke-miterlimit:2;">
    <g transform="matrix(3.38514,0,0,2.38285,-108.461,-70.7056)">
        <ellipse cx="46.811" cy="50.656" rx="14.77" ry="20.983" style="fill:white;"/>
    </g>
    <g id="cpp.svg" transform="matrix(0.1125,0,0,0.1125,50,50)">
        <g transform="matrix(1,0,0,1,-400,-400)">
            <path d="M202.6,400C202.71,291.751 291.751,202.71 400,202.6C470.385,202.745 535.608,240.374 570.967,301.233L521,330.133L688.567,233.4C684.257,225.58 678.028,218.983 670.467,214.233L425.633,72.9C411.5,64.733 388.433,64.733 374.333,72.9L129.5,214.233C115.433,222.367 103.9,242.367 103.9,258.667L103.9,541.333C103.9,549.5 106.767,558.567 111.433,566.6L229.067,498.667C211.684,468.696 202.55,434.647 202.6,400Z" style="fill-rule:nonzero;"/>
            <path d="M485.467,350.633C467.805,320.192 435.194,301.368 400,301.3C345.873,301.405 301.393,345.973 301.393,400.1C301.393,417.376 305.924,434.355 314.533,449.333L400,400L485.467,350.633Z" style="fill-rule:nonzero;"/>
            <path d="M688.567,233.4L520.367,330.5L485.5,350.667L485.467,350.633L400,400L314.567,449.333C332.179,479.811 364.799,498.661 400,498.7C435.214,498.643 467.846,479.802 485.5,449.333L570.933,498.767C535.585,559.636 470.356,597.268 399.967,597.4C329.537,597.359 264.26,559.653 229.033,498.667L111.4,566.6C116.067,574.667 122.467,581.7 129.5,585.767L374.333,727.1C388.433,735.267 411.5,735.267 425.633,727.1L670.467,585.767C677.5,581.7 683.9,574.667 688.567,566.6C693.233,558.567 696.1,549.5 696.1,541.333L696.1,258.667C696.1,250.5 693.233,241.433 688.567,233.4ZM597.4,410.967L575.467,410.967L575.467,432.9L553.567,432.9L553.567,410.967L531.633,410.967L531.633,389.033L553.567,389.033L553.567,367.1L575.467,367.1L575.467,389.033L597.4,389.033L597.4,410.967ZM679.667,410.967L657.733,410.967L657.733,432.9L635.8,432.9L635.8,410.967L613.9,410.967L613.9,389.033L635.8,389.033L635.8,367.1L657.733,367.1L657.733,389.033L679.667,389.033L679.667,410.967Z" style="fill-rule:nonzero;"/>
        </g>
    </g>
</svg>
