<?xml version="1.0" encoding="UTF-8" standalone="no"?>
<!DOCTYPE svg PUBLIC "-//W3C//DTD SVG 1.1//EN" "http://www.w3.org/Graphics/SVG/1.1/DTD/svg11.dtd">
<svg width="100%" height="100%" viewBox="0 0 100 100" version="1.1" xmlns="http://www.w3.org/2000/svg" xmlns:xlink="http://www.w3.org/1999/xlink" xml:space="preserve" xmlns:serif="http://www.serif.com/" style="fill-rule:evenodd;clip-rule:evenodd;stroke-linecap:round;stroke-linejoin:round;stroke-miterlimit:1.5;">
    <g transform="matrix(7.47601,0,0,9.47654,-80.8855,-700.136)">
        <ellipse cx="17.507" cy="79.157" rx="6.688" ry="5.276" style="fill:white;"/>
    </g>
    <g transform="matrix(1.25239,0,0,1.25239,-13.849,-9.25975)">
        <circle cx="34.204" cy="65.435" r="3.933"/>
        <circle cx="63.278" cy="58.2" r="4.247"/>
        <circle cx="24.4" cy="50.999" r="3.361"/>
        <circle cx="36.05" cy="33.355" r="3.055"/>
        <circle cx="50.009" cy="36.929" r="2.414"/>
        <circle cx="54.97" cy="26.197" r="3.333"/>
        <circle cx="71.28" cy="36.261" r="3.445"/>
        <circle cx="77.57" cy="58.887" r="3.355"/>
        <g transform="matrix(1,0,0,1,-2.09224,-3.20821)">
            <circle cx="54.962" cy="53.036" r="2.39"/>
        </g>
        <circle cx="49.693" cy="69.102" r="2.668"/>
        <g transform="matrix(0.798474,-0,-0,0.798474,11.0581,7.39367)">
            <path d="M77.482,67.507L80.815,67.879L78.518,70.323C78.963,69.36 78.445,67.952 77.482,67.507Z"/>
            <path d="M51.414,78.699C51.414,78.699 71.684,71.239 78.563,68.708" style="fill:none;stroke:black;stroke-width:1px;"/>
        </g>
        <g transform="matrix(1,0,0,1,-2.09224,-3.20821)">
            <g transform="matrix(0.798474,-0,-0,0.798474,13.1503,10.6019)">
                <path d="M23.981,55.299L20.878,54.027L23.758,52.307C23.066,53.111 23.177,54.607 23.981,55.299Z"/>
                <path d="M49.653,51.876C49.653,51.876 30.178,53.331 23.271,53.848" style="fill:none;stroke:black;stroke-width:1px;"/>
            </g>
        </g>
        <g transform="matrix(0.798474,-0,-0,0.798474,11.0581,7.39367)">
            <path d="M76.808,43.124L77.615,39.868L79.735,42.467C78.839,41.9 77.376,42.228 76.808,43.124Z"/>
            <path d="M82.224,60.428C82.224,60.428 79.349,47.601 78.14,42.21" style="fill:none;stroke:black;stroke-width:1px;"/>
        </g>
        <g transform="matrix(1,0,0,1,-2.09224,-3.20821)">
            <g transform="matrix(0.798474,-0,-0,0.798474,13.1503,10.6019)">
                <path d="M68.207,38.563L71.509,37.973L70,40.969C70.153,39.919 69.256,38.716 68.207,38.563Z"/>
                <path d="M54.262,50.831C54.262,50.831 65.086,42.761 69.584,39.407" style="fill:none;stroke:black;stroke-width:1px;"/>
            </g>
        </g>
        <g transform="matrix(1,0,0,1,-2.09224,-3.20821)">
            <g transform="matrix(0.798474,-0,-0,0.798474,13.1503,10.6019)">
                <path d="M48.599,43.233L49.341,39.961L51.513,42.517C50.605,41.968 49.149,42.325 48.599,43.233Z"/>
                <path d="M51.853,50.195C51.853,50.195 50.654,45.312 49.913,42.292" style="fill:none;stroke:black;stroke-width:1px;"/>
            </g>
        </g>
        <g transform="matrix(0.798474,-0,-0,0.798474,11.0581,7.39367)">
            <path d="M25.365,65.752L25.621,69.096L22.792,67.294C23.821,67.552 25.107,66.78 25.365,65.752Z"/>
            <path d="M19.038,58.117C19.038,58.117 22.481,63.858 24.387,67.037" style="fill:none;stroke:black;stroke-width:1px;"/>
        </g>
        <g transform="matrix(0.798474,-0,-0,0.798474,11.0581,7.39367)">
            <path d="M42.393,75.23L45.045,77.283L41.811,78.173C42.692,77.583 42.983,76.111 42.393,75.23Z"/>
            <path d="M33.352,74.972C33.352,74.972 39.276,76.143 42.691,76.818" style="fill:none;stroke:black;stroke-width:1px;"/>
        </g>
        <g transform="matrix(1,0,0,1,-2.09224,-3.20821)">
            <g transform="matrix(0.798474,-0,-0,0.798474,13.1503,10.6019)">
                <path d="M46.331,54.959L49.632,54.368L48.124,57.364C48.277,56.314 47.38,55.112 46.331,54.959Z"/>
                <path d="M31.061,68.222C31.061,68.222 42.959,59.346 47.708,55.803" style="fill:none;stroke:black;stroke-width:1px;"/>
            </g>
        </g>
        <g transform="matrix(1,0,0,1,-2.09224,-3.20821)">
            <g transform="matrix(0.798474,-0,-0,0.798474,13.1503,10.6019)">
                <path d="M49.243,58.631L51.185,55.896L52.208,59.09C51.581,58.234 50.099,58.004 49.243,58.631Z"/>
                <path d="M48.387,73.942C48.387,73.942 50.058,63.165 50.817,58.267" style="fill:none;stroke:black;stroke-width:1px;"/>
            </g>
        </g>
        <g transform="matrix(0.798474,-0,-0,0.798474,11.0581,7.39367)">
            <path d="M54.466,74.982L51.137,75.386L52.811,72.48C52.6,73.519 53.427,74.77 54.466,74.982Z"/>
            <path d="M62.336,67.977C62.336,67.977 56.36,71.931 53.138,74.062" style="fill:none;stroke:black;stroke-width:1px;"/>
        </g>
        <g transform="matrix(0.798474,-0,-0,0.798474,11.0581,7.39367)">
            <path d="M76.266,62.692L79.097,64.49L75.96,65.676C76.782,65.006 76.936,63.514 76.266,62.692Z"/>
            <path d="M70.719,63.63C70.719,63.63 74.233,63.991 76.71,64.245" style="fill:none;stroke:black;stroke-width:1px;"/>
        </g>
        <g transform="matrix(1,0,0,1,-2.09224,-3.20821)">
            <g transform="matrix(0.798474,-0,-0,0.798474,13.1503,10.6019)">
                <path d="M55.994,58.043L54.773,54.919L58.005,55.817C56.946,55.871 55.94,56.984 55.994,58.043Z"/>
                <path d="M61.476,60.974C61.476,60.974 58.54,58.322 56.554,56.528" style="fill:none;stroke:black;stroke-width:1px;"/>
            </g>
        </g>
        <g transform="matrix(0.798474,-0,-0,0.798474,11.0581,7.39367)">
            <path d="M69.863,56.391L67.449,58.72L67.034,55.391C67.492,56.349 68.906,56.848 69.863,56.391Z"/>
            <path d="M73.987,40.223C73.987,40.223 69.994,51.521 68.249,56.457" style="fill:none;stroke:black;stroke-width:1px;"/>
        </g>
        <g transform="matrix(0.798474,-0,-0,0.798474,11.0581,7.39367)">
            <path d="M60.657,28.158L58.732,25.411L62.084,25.519C61.068,25.822 60.354,27.141 60.657,28.158Z"/>
            <path d="M72.583,32.904C72.583,32.904 64.72,28.65 60.843,26.553" style="fill:none;stroke:black;stroke-width:1px;"/>
        </g>
        <g transform="matrix(0.798474,-0,-0,0.798474,11.0581,7.39367)">
            <path d="M43.253,34.761L45.759,36.99L42.472,37.657C43.391,37.128 43.782,35.68 43.253,34.761Z"/>
            <path d="M34.809,34.037C34.809,34.037 40.228,35.499 43.442,36.365" style="fill:none;stroke:black;stroke-width:1px;"/>
        </g>
        <g transform="matrix(0.798474,-0,-0,0.798474,11.0581,7.39367)">
            <path d="M53.005,32.303L50.435,34.459L50.252,31.11C50.642,32.096 52.018,32.693 53.005,32.303Z"/>
            <path d="M54.561,24.944C54.561,24.944 52.608,29.447 51.39,32.257" style="fill:none;stroke:black;stroke-width:1px;"/>
        </g>
        <g transform="matrix(0.798474,-0,-0,0.798474,11.0581,7.39367)">
            <path d="M47.646,24.335L50.981,24.696L48.691,27.147C49.133,26.183 48.611,24.777 47.646,24.335Z"/>
            <path d="M33.025,31.368C33.025,31.368 43.912,27.323 48.731,25.532" style="fill:none;stroke:black;stroke-width:1px;"/>
        </g>
        <g transform="matrix(0.798474,-0,-0,0.798474,11.0581,7.39367)">
            <path d="M26.019,37.158L28.954,35.535L28.491,38.857C28.298,37.814 27.062,36.965 26.019,37.158Z"/>
            <path d="M17.366,52.396C17.366,52.396 24.534,41.967 27.595,37.513" style="fill:none;stroke:black;stroke-width:1px;"/>
        </g>
    </g>
</svg>
