<?xml version="1.0" encoding="UTF-8" standalone="no"?>
<!DOCTYPE svg PUBLIC "-//W3C//DTD SVG 1.1//EN" "http://www.w3.org/Graphics/SVG/1.1/DTD/svg11.dtd">
<svg width="100%" height="100%" viewBox="0 0 100 100" version="1.1" xmlns="http://www.w3.org/2000/svg" xmlns:xlink="http://www.w3.org/1999/xlink" xml:space="preserve" xmlns:serif="http://www.serif.com/" style="fill-rule:evenodd;clip-rule:evenodd;stroke-linejoin:round;stroke-miterlimit:2;">
    <g transform="matrix(3.38514,0,0,2.38285,-108.461,-70.7056)">
        <ellipse cx="46.811" cy="50.656" rx="14.77" ry="20.983" style="fill:white;"/>
    </g>
    <g id="pen-tool.svg" transform="matrix(0.0828641,-0.0828641,0.0828641,0.0828641,50,50)">
        <g transform="matrix(1,0,0,1,-256,-256)">
            <clipPath id="_clip1">
                <rect x="0" y="0" width="512" height="512"/>
            </clipPath>
            <g clip-path="url(#_clip1)">
                <g transform="matrix(0.1,0,0,-0.1,0,512)">
                    <path d="M605,5107C534,5083 485,5053 442,5006C374,4933 356,4882 355,4770C355,4681 357,4671 389,4612C455,4491 560,4426 690,4426C794,4425 857,4449 929,4515C960,4545 995,4587 1005,4609L1023,4650L1249,4650C1373,4650 1470,4646 1465,4642C1459,4637 1426,4613 1390,4588C1066,4361 784,3916 636,3395C587,3220 574,3139 590,3100C617,3036 693,3010 758,3044C794,3063 806,3088 825,3185C834,3229 857,3318 876,3383C1058,4003 1424,4438 1893,4591C1983,4620 2127,4650 2180,4650C2208,4650 2208,4650 2212,4570C2215,4495 2217,4488 2248,4458L2280,4425L2840,4425L2872,4458C2903,4488 2905,4495 2909,4571L2912,4653L2969,4647C3347,4607 3724,4329 3987,3898C4107,3701 4218,3444 4281,3217C4298,3155 4317,3094 4323,3082C4338,3050 4380,3030 4431,3030C4486,3030 4540,3080 4540,3133C4540,3247 4379,3668 4238,3919C4083,4197 3892,4426 3695,4575C3651,4607 3611,4638 3606,4642C3600,4646 3709,4650 3846,4650L4097,4650L4114,4611C4136,4564 4210,4490 4264,4461C4438,4370 4653,4445 4739,4629C4761,4677 4765,4699 4765,4775C4765,4854 4761,4872 4737,4920C4698,4995 4639,5053 4566,5087C4514,5111 4492,5115 4420,5115C4347,5115 4327,5111 4278,5087C4209,5053 4141,4988 4116,4931L4097,4890L2910,4890L2910,4956C2910,5037 2890,5083 2845,5104C2796,5128 2324,5128 2275,5104C2230,5083 2210,5037 2210,4956L2210,4890L1023,4890L1004,4931C978,4989 914,5052 846,5085C778,5118 670,5128 605,5107Z" style="fill-rule:nonzero;"/>
                    <path d="M2060,3303C1469,1897 1508,1993 1515,1959C1519,1942 1551,1894 1586,1852C1770,1633 1899,1379 1955,1128L1972,1050L3148,1050L3165,1128C3221,1378 3347,1627 3526,1842C3565,1889 3601,1942 3604,1958C3609,1977 3604,2004 3592,2036C3557,2123 2688,4185 2684,4189C2682,4191 2680,3768 2680,3248L2680,2303L2708,2291C2798,2251 2867,2168 2896,2066C2939,1912 2861,1739 2713,1664C2661,1638 2645,1635 2560,1635C2475,1635 2459,1638 2407,1664C2259,1739 2180,1912 2224,2066C2252,2163 2322,2250 2401,2286L2440,2303L2440,3247C2440,3765 2439,4190 2437,4190C2435,4190 2266,3791 2060,3303Z" style="fill-rule:nonzero;"/>
                    <path d="M2488,2069C2450,2041 2435,1982 2454,1936C2470,1897 2522,1860 2560,1860C2598,1860 2650,1896 2665,1935C2684,1980 2675,2024 2638,2061C2614,2085 2600,2090 2562,2090C2531,2089 2506,2083 2488,2069Z" style="fill-rule:nonzero;"/>
                    <path d="M1750,442C1750,39 1749,47 1810,15C1854,-8 3266,-8 3310,15C3371,47 3370,39 3370,442L3370,810L1750,810L1750,442Z" style="fill-rule:nonzero;"/>
                </g>
            </g>
        </g>
    </g>
</svg>
