<?xml version="1.0" encoding="UTF-8" standalone="no"?>
<!DOCTYPE svg PUBLIC "-//W3C//DTD SVG 1.1//EN" "http://www.w3.org/Graphics/SVG/1.1/DTD/svg11.dtd">
<svg width="100%" height="100%" viewBox="0 0 100 100" version="1.1" xmlns="http://www.w3.org/2000/svg" xmlns:xlink="http://www.w3.org/1999/xlink" xml:space="preserve" xmlns:serif="http://www.serif.com/" style="fill-rule:evenodd;clip-rule:evenodd;stroke-linejoin:round;stroke-miterlimit:2;">
    <g transform="matrix(3.38514,0,0,2.38285,-108.461,-70.7056)">
        <ellipse cx="46.811" cy="50.656" rx="14.77" ry="20.983" style="fill:white;"/>
    </g>
    <g id="java.svg" transform="matrix(0.09375,0,0,0.09375,50,50)">
        <g transform="matrix(1,0,0,1,-400,-400)">
            <g id="_5151e0c8492e5103c096af88a51e8d81" serif:id="5151e0c8492e5103c096af88a51e8d81">
                <path d="M302.997,325.577C295.608,309.239 292.295,290.183 297.941,272.872C303.584,255.173 316.227,240.977 328.869,227.75C364.064,192.545 407.439,166.68 441.863,130.897C460.92,111.252 476.672,87.719 482.116,60.683C486.591,40.847 484.453,20.427 480.37,0.781C498.652,21.592 504.681,51.348 499.428,78.189C493.791,108.333 477.059,134.977 457.419,157.925C441.667,176.405 423.577,192.741 404.714,207.914C382.738,225.612 361.152,244.67 347.345,269.566C335.67,289.789 332.947,314.684 340.923,336.663C353.956,374.391 384.292,402.398 400.827,437.988C382.541,421.844 364.652,405.119 347.92,387.423C330.423,368.752 313.889,348.917 302.997,325.577ZM402.184,296.013C398.88,326.938 415.017,356.109 434.277,379.061C443.608,389.367 451.583,402.009 451.969,416.403C452.361,435.65 441.475,453.55 427.462,466.186C430.773,465.802 433.106,462.881 435.83,461.327C456.834,447.906 477.056,430.986 487.364,407.847C494.172,392.092 492.617,373.419 483.673,358.83C473.167,341.716 459.362,326.545 451.195,307.877C446.716,297.375 445.161,285.123 448.858,274.038C453.723,259.064 464.223,246.809 475.311,236.113C505.842,207.138 542.794,186.514 578.192,163.958C533.459,176.792 489.313,194.492 451.583,222.306C427.659,240.198 405.492,265.091 402.184,296.013ZM614.761,442.269C635.961,443.438 656.764,458.994 660.658,480.389C664.355,498.866 655.411,517.145 643.931,531.147C625.064,553.706 599.584,569.852 573.92,583.661C571.386,585.209 569.248,587.156 567.303,589.298C601.145,580.739 634.981,567.909 662.408,545.93C677.572,533.287 690.992,516.556 693.913,496.525C696.636,479.219 689.444,461.325 676.605,449.852C661.042,435.648 639.072,430.402 618.452,433.127C606.588,434.681 593.559,437.209 585.392,447.128C595.12,445.189 604.642,441.295 614.761,442.269ZM192.531,497.886C218.005,504.694 244.263,506.641 270.323,508.392C293.661,509.947 317.003,510.339 340.538,510.142C401.214,509.175 462.281,505.086 521.792,491.862C527.43,490.503 533.656,489.53 538.719,486.03C548.636,479.608 559.52,474.55 570.222,469.494C521.792,477.273 473.17,483.892 424.163,487.002C374.569,490.112 324.583,492.058 274.798,488.753C260.602,487.394 246.012,486.611 232.789,481.162C229.673,479.803 225.394,477.086 226.948,472.995C229.869,467.744 235.703,465.219 240.759,462.495C262.156,452.381 285.492,446.744 308.248,440.131C269.153,439.544 230.255,449.461 194.477,464.828C186.5,468.72 177.555,471.83 171.139,478.444C168.605,481.161 168.605,485.837 171.525,488.166C177.361,493.417 185.136,495.75 192.531,497.886ZM507.6,551.375C473.563,557.405 439.328,563.05 404.903,564.795C367.173,567.323 329.444,565.181 292.105,561.294C284.911,560.32 277.712,559.156 271.297,555.852C267.991,553.905 264.686,550.795 264.881,546.705C265.267,540.289 270.709,535.819 274.603,531.148C262.548,535.428 250.487,539.897 240.375,547.88C236.091,551.186 231.816,556.433 232.98,562.267C234.737,569.073 241.348,573.158 247.183,576.267C261.57,583.663 277.714,586.964 293.472,589.883C333.333,596.305 373.983,596.5 414.045,593.77C456.453,590.466 498.652,583.467 539.688,571.406C528.019,566.159 516.931,560.123 507.6,551.375ZM293.856,618.673C282.966,621.783 271.878,625.481 262.934,632.669C258.453,636.17 254.958,642.206 257.1,647.845C259.823,655.039 266.631,659.325 273.042,663.009C289.773,672.156 308.636,676.43 327.111,679.741C368.931,686.348 411.908,685.378 453.53,677.991C478.227,673.32 502.928,666.708 525.875,656.405C510.9,650.18 496.317,643.175 482.316,635.009C458.005,639.288 433.494,643.764 408.6,645.319C375.738,647.847 342.477,645.123 309.608,641.041C301.827,639.289 292.105,638.513 286.853,631.703C284.136,626.058 290.356,621.973 293.856,618.673ZM559.914,743.722C587.139,738.091 614.566,731.661 639.458,719.025C647.233,714.545 656.764,709.683 659.298,700.353C660.658,691.408 651.322,686.738 644.709,683.041C648.792,687.717 651.516,694.52 647.428,699.963C640.62,709.108 628.958,712.605 618.647,716.106C586.366,725.247 552.909,728.944 519.655,732.641C431.553,740.613 342.864,742.559 254.767,735.169C225.205,732.053 195.053,728.748 166.855,718.248C162.386,716.302 155.578,714.355 155.578,708.323C157.323,703.083 162.386,700.156 166.855,697.628C187.081,687.323 209.642,681.68 232.202,680.32C225.595,676.428 217.814,676.042 210.23,676.238C191.361,676.82 172.886,681.68 154.997,687.717C139.631,693.348 123.878,699.577 111.622,710.859C106.761,715.133 102.292,723.3 107.342,729.139C115.123,737.503 127.184,739.639 137.873,742.167C197.777,752.478 258.453,758.305 319.141,760.447C399.658,762.788 480.756,759.284 559.914,743.722ZM639.653,754.228C603.088,765.897 565.166,772.313 527.431,777.566C462.281,785.733 396.542,788.261 331,786.32C291.133,784.766 251.266,782.042 211.975,775.423C221.116,781.648 232.398,783.591 242.903,786.511C287.055,795.848 332.364,797.598 377.294,798.958C443.216,800.127 509.148,797.598 574.109,787.289C604.842,781.852 635.764,775.234 663.375,760.841C677.773,753.256 692.363,741.581 694.88,724.666C680.298,740.22 659.298,747.42 639.653,754.228Z" style="fill-rule:nonzero;"/>
            </g>
        </g>
    </g>
</svg>
