<?xml version="1.0" encoding="UTF-8" standalone="no"?>
<!DOCTYPE svg PUBLIC "-//W3C//DTD SVG 1.1//EN" "http://www.w3.org/Graphics/SVG/1.1/DTD/svg11.dtd">
<svg width="100%" height="100%" viewBox="0 0 100 100" version="1.1" xmlns="http://www.w3.org/2000/svg" xmlns:xlink="http://www.w3.org/1999/xlink" xml:space="preserve" xmlns:serif="http://www.serif.com/" style="fill-rule:evenodd;clip-rule:evenodd;stroke-linejoin:round;stroke-miterlimit:2;">
    <g transform="matrix(3.38514,0,0,2.38285,-108.461,-70.7056)">
        <ellipse cx="46.811" cy="50.656" rx="14.77" ry="20.983" style="fill:white;"/>
    </g>
    <g id="language.svg" transform="matrix(0.1125,0,0,0.1125,50,50)">
        <g transform="matrix(1,0,0,1,-400,-400)">
            <path d="M686,645.667L586.333,367C579.333,348.667 563.667,337.333 545.667,337.333C527.667,337.333 512.333,348.667 504.667,367.667L405.333,645.667C400.667,658.667 407.333,673 420.333,677.667C433.333,682.333 447.667,675.667 452.333,662.667L473,605L618,605L638.667,662.667C642.333,673 652,679.333 662.333,679.333C665,679.333 668,679 670.667,678C683.667,673.333 690.333,659 685.667,646L686,645.667ZM491.333,554.667L546,401.667L600.667,554.667L491.333,554.667ZM406.333,261.667C331,380.667 263,452.667 180.333,500.667C176.333,503 172,504 168,504C159.333,504 151,499.667 146.333,491.667C139.333,479.667 143.333,464.333 155.333,457.667C225.333,417 282.667,358.667 347,262L137.333,262C123.667,262 112.333,250.667 112.333,237C112.333,223.333 123.667,212 137.333,212L262.333,212L262.333,146C262.333,132.333 273.667,121 287.333,121C301,121 312.333,132.333 312.333,146L312.333,212L437.333,212C451,212 462.333,223.333 462.333,237C462.333,250.667 451,262 437.333,262L406,262L406.333,261.667ZM407.667,504C403.333,504 399,503 395,500.667C373.333,488 352.333,474 332.666,459.333C321.666,451 319.333,435.333 327.667,424.333C336,413.333 351.667,411 362.667,419.333C380.667,433 400.333,445.667 420.333,457.333C432.333,464.333 436.333,479.667 429.333,491.667C424.667,499.667 416.333,504 407.667,504Z" style="fill-rule:nonzero;"/>
        </g>
    </g>
</svg>
