<?xml version="1.0" encoding="UTF-8" standalone="no"?>
<!DOCTYPE svg PUBLIC "-//W3C//DTD SVG 1.1//EN" "http://www.w3.org/Graphics/SVG/1.1/DTD/svg11.dtd">
<svg width="100%" height="100%" viewBox="0 0 100 100" version="1.1" xmlns="http://www.w3.org/2000/svg" xmlns:xlink="http://www.w3.org/1999/xlink" xml:space="preserve" xmlns:serif="http://www.serif.com/" style="fill-rule:evenodd;clip-rule:evenodd;stroke-linejoin:round;stroke-miterlimit:2;">
    <g transform="matrix(3.38514,0,0,2.38285,-108.461,-70.7056)">
        <ellipse cx="46.811" cy="50.656" rx="14.77" ry="20.983" style="fill:white;"/>
    </g>
    <g id="lua.svg" transform="matrix(0.075,0,0,0.075,50,50)">
        <g transform="matrix(1,0,0,1,-400,-400)">
            <clipPath id="_clip1">
                <rect x="0" y="0" width="800" height="800"/>
            </clipPath>
            <g clip-path="url(#_clip1)">
                <path d="M162.95,635.7C216.724,690.114 290.123,720.772 366.625,720.772C443.127,720.772 516.526,690.114 570.3,635.7C682.074,522.595 682.074,337.955 570.3,224.85C516.526,170.436 443.127,139.778 366.625,139.778C290.123,139.778 216.724,170.436 162.95,224.85C51.176,337.955 51.176,522.595 162.95,635.7ZM107.4,691.7C-35.8,547.35 -35.8,313.2 107.4,168.85C175.84,99.595 269.258,60.576 366.625,60.576C463.992,60.576 557.41,99.595 625.85,168.85C769,313.25 769,547.35 625.85,691.7C557.408,760.97 463.979,799.999 366.6,799.999C269.221,799.999 175.792,760.97 107.35,691.7L107.4,691.7ZM777,135.25C762.334,150.091 742.315,158.452 721.45,158.452C700.585,158.452 680.566,150.091 665.9,135.25C635.446,104.41 635.446,54.09 665.9,23.25C680.566,8.409 700.585,0.048 721.45,0.048C742.315,0.048 762.334,8.409 777,23.25C807.454,54.09 807.454,104.41 777,135.25Z" style="fill-rule:nonzero;"/>
                <path d="M592.2,433.65C562.867,463.331 522.83,480.054 481.1,480.054C439.37,480.054 399.333,463.331 370,433.65C309.06,371.964 309.06,271.286 370,209.6C399.333,179.919 439.37,163.196 481.1,163.196C522.83,163.196 562.867,179.919 592.2,209.6C653.14,271.286 653.14,371.964 592.2,433.65ZM425.5,377.65C440.166,392.491 460.185,400.852 481.05,400.852C501.915,400.852 521.934,392.491 536.6,377.65C567.054,346.81 567.054,296.49 536.6,265.65C521.934,250.809 501.915,242.448 481.05,242.448C460.185,242.448 440.166,250.809 425.5,265.65C395.046,296.49 395.046,346.81 425.5,377.65Z" style="fill-rule:nonzero;"/>
            </g>
        </g>
    </g>
</svg>
