<?xml version="1.0" encoding="UTF-8" standalone="no"?>
<!DOCTYPE svg PUBLIC "-//W3C//DTD SVG 1.1//EN" "http://www.w3.org/Graphics/SVG/1.1/DTD/svg11.dtd">
<svg width="100%" height="100%" viewBox="0 0 100 100" version="1.1" xmlns="http://www.w3.org/2000/svg" xmlns:xlink="http://www.w3.org/1999/xlink" xml:space="preserve" xmlns:serif="http://www.serif.com/" style="fill-rule:evenodd;clip-rule:evenodd;stroke-linejoin:round;stroke-miterlimit:2;">
    <g transform="matrix(3.38514,0,0,2.38285,-108.461,-70.7056)">
        <ellipse cx="46.811" cy="50.656" rx="14.77" ry="20.983" style="fill:white;"/>
    </g>
    <g id="ml.svg" transform="matrix(0.09375,0,0,0.09375,50,50)">
        <g transform="matrix(1,0,0,1,-400,-400)">
            <g id="Layer_2">
                <g id="invisible_box">
                    <rect x="0" y="0" width="800" height="800" style="fill:none;"/>
                </g>
                <g id="Q3_icons">
                    <path d="M300,300L300,500L500,500L500,300L300,300ZM450,450L350,450L350,350L450,350L450,450ZM300,300L300,500L500,500L500,300L300,300ZM450,450L350,450L350,350L450,350L450,450ZM300,300L300,500L500,500L500,300L300,300ZM450,450L350,450L350,350L450,350L450,450ZM300,300L300,500L500,500L500,300L300,300ZM450,450L350,450L350,350L450,350L450,450ZM760,311.667L683.333,248.333L683.333,125C683.225,118.485 679.306,112.606 673.333,110L508.333,35L501.667,35L491.667,38.333L400,98.333L308.333,36.667L298.333,33.333L291.667,33.333L126.667,110C120.694,112.606 116.775,118.485 116.667,125L116.667,248.333L40,311.667C35.279,314.332 32.633,319.624 33.333,325L33.333,475C33.034,480.306 35.576,485.389 40,488.333L116.667,551.667L116.667,675C116.775,681.515 120.694,687.394 126.667,690L291.667,765L298.333,765L308.333,761.667L400,701.667L491.667,763.333L501.667,766.667L508.333,766.667L673.333,691.667C679.306,689.061 683.225,683.182 683.333,676.667L683.333,551.667L760,488.333C764.424,485.389 766.966,480.306 766.667,475L766.667,325C767.367,319.624 764.721,314.332 760,311.667ZM508.333,116.667C522.048,116.667 533.333,127.952 533.333,141.667C533.333,155.381 522.048,166.667 508.333,166.667C494.619,166.667 483.333,155.381 483.333,141.667C483.333,127.952 494.619,116.667 508.333,116.667ZM291.667,116.667C305.381,116.667 316.667,127.952 316.667,141.667C316.667,155.381 305.381,166.667 291.667,166.667C277.952,166.667 266.667,155.381 266.667,141.667C266.667,127.952 277.952,116.667 291.667,116.667ZM291.667,683.333C277.952,683.333 266.667,672.048 266.667,658.333C266.667,644.619 277.952,633.333 291.667,633.333C305.381,633.333 316.667,644.619 316.667,658.333C316.667,672.048 305.381,683.333 291.667,683.333ZM508.333,683.333C494.619,683.333 483.333,672.048 483.333,658.333C483.333,644.619 494.619,633.333 508.333,633.333C522.048,633.333 533.333,644.619 533.333,658.333C533.333,672.048 522.048,683.333 508.333,683.333ZM575,416.667C588.715,416.667 600,427.952 600,441.667C600,455.381 588.715,466.667 575,466.667L550,466.667L550,516.667C550,534.953 534.953,550 516.667,550L466.667,550L466.667,575C466.667,588.715 455.381,600 441.667,600C427.952,600 416.667,588.715 416.667,575L416.667,550L383.333,550L383.333,575C383.333,588.715 372.048,600 358.333,600C344.619,600 333.333,588.715 333.333,575L333.333,550L283.333,550C265.047,550 250,534.953 250,516.667L250,466.667L225,466.667C211.285,466.667 200,455.381 200,441.667C200,427.952 211.285,416.667 225,416.667L250,416.667L250,383.333L225,383.333C211.285,383.333 200,372.048 200,358.333C200,344.619 211.285,333.333 225,333.333L250,333.333L250,283.333C250,265.047 265.047,250 283.333,250L333.333,250L333.333,225C333.333,211.285 344.619,200 358.333,200C372.048,200 383.333,211.285 383.333,225L383.333,250L416.667,250L416.667,225C416.667,211.285 427.952,200 441.667,200C455.381,200 466.667,211.285 466.667,225L466.667,250L516.667,250C534.953,250 550,265.047 550,283.333L550,333.333L575,333.333C588.715,333.333 600,344.619 600,358.333C600,372.048 588.715,383.333 575,383.333L550,383.333L550,416.667L575,416.667ZM300,500L500,500L500,300L300,300L300,500ZM350,350L450,350L450,450L350,450L350,350ZM300,300L300,500L500,500L500,300L300,300ZM450,450L350,450L350,350L450,350L450,450ZM300,300L300,500L500,500L500,300L300,300ZM450,450L350,450L350,350L450,350L450,450Z" style="fill-rule:nonzero;"/>
                </g>
            </g>
        </g>
    </g>
</svg>
