<?xml version="1.0" encoding="UTF-8" standalone="no"?>
<!DOCTYPE svg PUBLIC "-//W3C//DTD SVG 1.1//EN" "http://www.w3.org/Graphics/SVG/1.1/DTD/svg11.dtd">
<svg width="100%" height="100%" viewBox="0 0 100 100" version="1.1" xmlns="http://www.w3.org/2000/svg" xmlns:xlink="http://www.w3.org/1999/xlink" xml:space="preserve" xmlns:serif="http://www.serif.com/" style="fill-rule:evenodd;clip-rule:evenodd;stroke-linecap:round;stroke-linejoin:round;">
    <g transform="matrix(3.38514,0,0,2.38285,-108.461,-70.7056)">
        <ellipse cx="46.811" cy="50.656" rx="14.77" ry="20.983" style="fill:white;"/>
    </g>
    <g id="opencv.svg" transform="matrix(0.1,0,0,0.1,50,50)">
        <g transform="matrix(1,0,0,1,-400,-400)">
            <g>
                <path d="M372.667,554.667C372.575,636.251 305.418,703.333 223.833,703.333C142.186,703.333 75,636.147 75,554.5C75,472.852 142.186,405.666 223.833,405.666C248.374,405.666 272.539,411.736 294.167,423.333" style="fill:none;fill-rule:nonzero;stroke:black;stroke-width:1px;"/>
                <path d="M294.667,554.667C294.667,593.068 262.234,624.733 223.833,624.733C185.433,624.733 153.833,593.134 153.833,554.733C153.833,516.332 185.433,484.733 223.833,484.733C235.345,484.733 246.681,487.573 256.833,493" style="fill:white;fill-opacity:0;fill-rule:nonzero;stroke:black;stroke-width:1px;"/>
                <path d="M294.167,423.333L256.833,493" style="fill:none;fill-rule:nonzero;stroke:black;stroke-width:1px;"/>
                <path d="M372.667,554.667L294.667,554.667" style="fill:none;fill-rule:nonzero;stroke:black;stroke-width:1px;"/>
                <path d="M372.667,554.667C372.575,636.251 305.418,703.333 223.833,703.333C142.186,703.333 75,636.147 75,554.5C75,472.852 142.186,405.666 223.833,405.666C248.374,405.666 272.539,411.736 294.167,423.333L256.833,493C246.681,487.573 235.345,484.733 223.833,484.733C185.433,484.733 153.833,516.332 153.833,554.733C153.833,593.134 185.433,624.733 223.833,624.733C262.234,624.733 294.667,593.068 294.667,554.667L372.667,554.667Z"/>
            </g>
            <g>
                <path d="M656.833,429.5C699.264,456.882 724.964,504.056 724.964,554.554C724.964,636.202 657.779,703.387 576.131,703.387C494.484,703.387 427.298,636.202 427.298,554.554C427.298,503.397 453.673,455.699 497,428.5" style="fill:none;fill-rule:nonzero;stroke:black;stroke-width:1px;"/>
                <path d="M616.667,498.833C634.345,511.86 644.804,532.556 644.804,554.516C644.804,592.46 613.581,623.683 575.637,623.683C537.693,623.683 506.47,592.46 506.47,554.516C506.47,531.954 517.51,510.763 536,497.833" style="fill:none;fill-rule:nonzero;stroke:black;stroke-width:1px;"/>
                <path d="M497,428.5L536,497.833" style="fill:none;fill-rule:nonzero;stroke:black;stroke-width:1px;"/>
                <path d="M616.667,498.833L656.833,429.5" style="fill:none;fill-rule:nonzero;stroke:black;stroke-width:1px;"/>
                <path d="M656.833,429.5C699.264,456.882 724.964,504.056 724.964,554.554C724.964,636.202 657.779,703.387 576.131,703.387C494.484,703.387 427.298,636.202 427.298,554.554C427.298,503.397 453.673,455.699 497,428.5L536,497.833C517.51,510.763 506.47,531.954 506.47,554.516C506.47,592.46 537.693,623.683 575.637,623.683C613.581,623.683 644.804,592.46 644.804,554.516C644.804,532.556 634.345,511.86 616.667,498.833L656.833,429.5Z"/>
            </g>
            <path d="M362,300.833L319,370" style="fill:none;fill-rule:nonzero;stroke:black;stroke-width:1px;"/>
            <path d="M319,370C277.088,342.52 251.773,295.652 251.773,245.534C251.773,163.887 318.959,96.701 400.606,96.701C482.254,96.701 549.44,163.887 549.44,245.534C549.44,296.302 523.464,343.691 480.667,371L440.667,300C459.477,286.928 470.72,265.423 470.72,242.517C470.72,204.116 439.121,172.517 400.72,172.517C362.319,172.517 330.72,204.116 330.72,242.517C330.72,265.946 342.482,287.874 362,300.833L319,370Z"/>
        </g>
    </g>
</svg>
