<?xml version="1.0" encoding="UTF-8" standalone="no"?>
<!DOCTYPE svg PUBLIC "-//W3C//DTD SVG 1.1//EN" "http://www.w3.org/Graphics/SVG/1.1/DTD/svg11.dtd">
<svg width="100%" height="100%" viewBox="0 0 100 100" version="1.1" xmlns="http://www.w3.org/2000/svg" xmlns:xlink="http://www.w3.org/1999/xlink" xml:space="preserve" xmlns:serif="http://www.serif.com/" style="fill-rule:evenodd;clip-rule:evenodd;stroke-linejoin:round;stroke-miterlimit:2;">
    <g transform="matrix(3.38514,0,0,2.38285,-108.461,-70.7056)">
        <ellipse cx="46.811" cy="50.656" rx="14.77" ry="20.983" style="fill:white;"/>
    </g>
    <g id="python.svg" transform="matrix(0.09375,0,0,0.09375,50,50)">
        <g transform="matrix(1,0,0,1,-400,-400)">
            <g id="_5151e0c8492e5103c096af88a51ec286" serif:id="5151e0c8492e5103c096af88a51ec286">
                <path d="M304.272,385.748L494.534,385.748C547.503,385.748 589.778,342.142 589.778,288.952L589.778,107.572C589.778,55.955 546.231,17.173 494.534,8.555C461.811,3.111 427.858,0.634 395.3,0.788C362.73,0.939 331.644,3.716 304.272,8.555C223.669,22.8 209.034,52.603 209.034,107.572L209.034,180.17L399.516,180.17L399.516,204.367L137.55,204.367C82.184,204.367 33.708,237.641 18.553,300.942C1.066,373.497 0.281,418.769 18.553,494.533C32.094,550.92 64.427,591.106 119.788,591.106L185.283,591.106L185.283,504.077C185.283,441.203 239.672,385.748 304.272,385.748ZM292.286,131.77C272.542,131.77 256.541,115.591 256.541,95.581C256.541,75.505 272.542,59.175 292.286,59.175C311.964,59.175 328.025,75.505 328.025,95.581C328.025,115.592 311.966,131.77 292.286,131.77ZM780.266,300.942C766.577,245.833 740.447,204.367 685.016,204.367L613.531,204.367L613.531,288.952C613.531,354.533 557.934,409.72 494.534,409.72L304.272,409.72C252.164,409.72 209.034,454.325 209.034,506.523L209.034,687.897C209.034,739.517 253.919,769.891 304.272,784.683C364.567,802.422 422.381,805.634 494.534,784.683C542.484,770.814 589.778,742.864 589.778,687.897L589.778,615.302L399.516,615.302L399.516,591.105L685.016,591.105C740.377,591.105 761.012,552.488 780.266,494.531C800.144,434.866 799.295,377.483 780.266,300.942ZM506.528,663.697C526.278,663.697 542.267,679.878 542.267,699.878C542.267,719.956 526.278,736.292 506.528,736.292C486.848,736.292 470.783,719.956 470.783,699.878C470.783,679.878 486.848,663.697 506.528,663.697Z" style="fill-rule:nonzero;"/>
            </g>
        </g>
    </g>
</svg>
