<?xml version="1.0" encoding="UTF-8" standalone="no"?>
<!DOCTYPE svg PUBLIC "-//W3C//DTD SVG 1.1//EN" "http://www.w3.org/Graphics/SVG/1.1/DTD/svg11.dtd">
<svg width="100%" height="100%" viewBox="0 0 100 100" version="1.1" xmlns="http://www.w3.org/2000/svg" xmlns:xlink="http://www.w3.org/1999/xlink" xml:space="preserve" xmlns:serif="http://www.serif.com/" style="fill-rule:evenodd;clip-rule:evenodd;stroke-linejoin:round;stroke-miterlimit:2;">
    <g transform="matrix(3.38514,0,0,2.38285,-108.461,-70.7056)">
        <ellipse cx="46.811" cy="50.656" rx="14.77" ry="20.983" style="fill:white;"/>
    </g>
    <g id="web.svg" transform="matrix(0.08125,0,0,0.08125,50,50)">
        <g transform="matrix(1,0,0,1,-400,-400)">
            <g>
                <g>
                    <g>
                        <path d="M538.936,671.286C534.791,668.763 531.179,665.382 528.308,661.284C526.982,659.394 525.862,657.396 524.934,655.331L53.879,655.331L53.879,191.033L693.268,191.033L693.268,494.203C706.918,495.436 718.371,504.401 723.18,516.677C727.438,514.344 732.183,512.901 737.171,512.461C740.545,512.168 743.896,512.378 747.146,513.02L747.146,75.367C747.146,50.608 727.007,30.466 702.251,30.466L44.899,30.466C20.142,30.466 0,50.608 0,75.367L0,664.313C0,689.071 20.142,709.212 44.899,709.212L534.844,709.212C531.021,701.47 530.114,692.729 532.364,684.32C533.661,679.483 535.905,675.071 538.936,671.286ZM643.963,105.863C643.963,96.707 651.385,89.283 660.541,89.283L677.119,89.283C686.277,89.283 693.697,96.705 693.697,105.863L693.697,124.653C693.697,133.809 686.275,141.231 677.119,141.231L660.541,141.231C651.383,141.231 643.963,133.809 643.963,124.653L643.963,105.863ZM566.874,105.863C566.874,96.707 574.296,89.283 583.452,89.283L600.032,89.283C609.19,89.283 616.61,96.705 616.61,105.863L616.61,124.653C616.61,133.809 609.188,141.231 600.032,141.231L583.452,141.231C574.296,141.231 566.874,133.809 566.874,124.653L566.874,105.863ZM489.783,105.863C489.783,96.707 497.207,89.283 506.361,89.283L522.939,89.283C532.097,89.283 539.519,96.705 539.519,105.863L539.519,124.653C539.519,133.809 532.097,141.231 522.939,141.231L506.361,141.231C497.207,141.231 489.783,133.809 489.783,124.653L489.783,105.863Z" style="fill-rule:nonzero;"/>
                        <path d="M799.893,639.667L794.912,611.415C794.239,607.61 790.614,605.069 786.805,605.74L761.681,610.167C758.666,603.09 754.814,596.46 750.241,590.392L766.652,570.831C767.844,569.414 768.425,567.575 768.265,565.725C768.101,563.875 767.21,562.169 765.789,560.974L743.816,542.533C742.394,541.34 740.552,540.761 738.704,540.923C736.854,541.085 735.147,541.975 733.955,543.396L717.56,562.942C710.829,559.513 703.63,556.869 696.088,555.124L696.088,529.611C696.088,525.747 692.954,522.612 689.09,522.612L660.4,522.612C656.538,522.612 653.403,525.747 653.403,529.611L653.403,555.124C645.857,556.867 638.665,559.513 631.93,562.942L615.532,543.398C613.047,540.437 608.635,540.053 605.673,542.535L583.698,560.974C582.277,562.169 581.387,563.875 581.223,565.725C581.063,567.575 581.642,569.415 582.835,570.837L599.247,590.394C594.682,596.46 590.823,603.093 587.807,610.169L562.683,605.74C558.884,605.071 555.251,607.61 554.577,611.415L549.597,639.667C549.275,641.494 549.692,643.372 550.753,644.895C551.822,646.417 553.439,647.451 555.268,647.773L580.412,652.204C580.821,659.994 582.178,667.531 584.361,674.707L562.262,687.462C560.654,688.385 559.482,689.917 559,691.708C558.52,693.501 558.774,695.409 559.7,697.017L574.043,721.861C574.967,723.469 576.499,724.641 578.289,725.121C578.886,725.281 579.493,725.359 580.101,725.359C581.318,725.359 582.524,725.043 583.599,724.422L605.715,711.652C610.916,717.224 616.787,722.162 623.203,726.338L614.47,750.329C613.838,752.074 613.92,753.998 614.705,755.68C615.49,757.363 616.909,758.664 618.652,759.296L645.605,769.105C646.379,769.387 647.19,769.532 648,769.532C649.009,769.532 650.025,769.313 650.96,768.875C652.642,768.092 653.94,766.671 654.574,764.926L663.305,740.935C667.049,741.388 670.859,741.623 674.724,741.623C678.59,741.623 682.4,741.385 686.143,740.935L694.876,764.926C695.509,766.671 696.812,768.092 698.49,768.875C699.423,769.311 700.435,769.532 701.45,769.532C702.258,769.532 703.07,769.391 703.843,769.105L730.8,759.296C732.539,758.664 733.961,757.359 734.744,755.68C735.528,753.998 735.612,752.074 734.978,750.329L726.245,726.342C732.656,722.166 738.527,717.224 743.734,711.656L765.85,724.426C766.922,725.043 768.13,725.363 769.347,725.363C769.953,725.363 770.567,725.281 771.159,725.125C772.952,724.645 774.48,723.469 775.405,721.865L789.749,697.017C790.675,695.413 790.928,693.501 790.448,691.708C789.966,689.921 788.794,688.389 787.186,687.462L765.091,674.711C767.275,667.533 768.627,659.996 769.037,652.208L794.18,647.775C796.009,647.453 797.632,646.419 798.695,644.896C799.798,643.372 800.215,641.494 799.893,639.667ZM674.747,684.562C653.496,684.562 636.265,667.331 636.265,646.078C636.265,624.825 653.498,607.595 674.747,607.595C696,607.595 713.231,624.825 713.231,646.078C713.231,667.331 696,684.562 674.747,684.562Z" style="fill-rule:nonzero;"/>
                        <g>
                            <path d="M313.756,448.403C313.756,439.35 308.451,431.035 300.238,427.221L225.073,392.297L300.24,357.369C308.451,353.551 313.756,345.238 313.756,336.189L313.756,335.581C313.756,327.56 309.719,320.197 302.964,315.894C299.226,313.507 294.873,312.244 290.379,312.244C286.992,312.244 283.591,312.989 280.549,314.402L160.381,370.284C152.172,374.101 146.87,382.415 146.87,391.462L146.87,393.133C146.87,402.169 152.17,410.477 160.383,414.314L280.562,470.201C283.669,471.639 286.979,472.369 290.396,472.369C294.85,472.369 299.19,471.104 302.964,468.704C309.723,464.383 313.758,457.026 313.758,449.015L313.756,448.403Z" style="fill-rule:nonzero;"/>
                            <path d="M432.322,255.303C427.939,249.302 420.888,245.72 413.46,245.72L412.862,245.72C402.662,245.72 393.72,252.245 390.613,261.944L311.438,507.264C309.184,514.347 310.453,522.149 314.831,528.148C319.214,534.145 326.265,537.728 333.693,537.728L334.293,537.728C344.489,537.728 353.426,531.202 356.529,521.505L435.694,276.203C437.969,269.126 436.708,261.313 432.322,255.303Z" style="fill-rule:nonzero;"/>
                            <path d="M586.765,370.282L466.595,314.4C463.562,312.99 460.167,312.246 456.78,312.246C452.288,312.246 447.933,313.505 444.197,315.888C437.43,320.199 433.393,327.56 433.393,335.581L433.393,336.189C433.393,345.23 438.695,353.546 446.913,357.379L522.076,392.299L446.912,427.221C438.699,431.035 433.393,439.35 433.393,448.403L433.393,449.015C433.393,457.026 437.43,464.381 444.193,468.706C447.954,471.102 452.297,472.369 456.757,472.369C460.171,472.369 463.476,471.639 466.604,470.195L586.78,414.308C594.985,410.481 600.283,402.171 600.283,393.135L600.283,391.464C600.278,382.415 594.976,374.101 586.765,370.282Z" style="fill-rule:nonzero;"/>
                        </g>
                    </g>
                </g>
            </g>
        </g>
    </g>
</svg>
