<svg version="1.1"
     width="100vw"
     viewBox="12 0 744 114"
     xmlns="http://www.w3.org/2000/svg">
  <defs>
    <clipPath id="clip">
      <rect width="100vw" height="10rem"/>
    </clipPath>
  </defs>
  <g clip-path="url(#clip)">
    <path d="m764 105c-8 10-8-10-16 0s-8-10-16 0-8-10-16 0-8-10-16 0-8-10-16 0-8-10-16 0-8-10-16 0-8-10-16 0-8-10-16 0-8-10-16 0-8-10-16 0-8-10-16 0-8-10-16 0-8-10-16 0-8-10-16 0-8-10-16 0-8-10-16 0-8-10-16 0-8-10-16 0-8-10-16 0-8-10-16 0-8-10-16 0-8-10-16 0-8-10-16 0-8-10-16 0-8-10-16 0-8-10-16 0-8-10-16 0-8-10-16 0-8-10-16 0-8-10-16 0-8-10-16 0-8-10-16 0-8-10-16 0-8-10-16 0-8-10-16 0-8-10-16 0-8-10-16 0-8-10-16 0-8-10-16 0-8-10-16 0-8-10-16 0-8-10-16 0-8-10-16 0-8-10-16 0-8-10-16 0-8-10-16 0"
          fill="none" stroke="#ffffff7f" stroke-width="3">
      <animateTransform
              attributeName="transform"
              type="translate"
              from="0 0"
              to="-16 0"
              dur="2s"
              begin="0s"
              fill="remove"
              repeatCount="indefinite"/>
      <animate
              values="
                  m764 105c-8 10-8-10-16 0s-8-10-16 0-8-10-16 0-8-10-16 0-8-10-16 0-8-10-16 0-8-10-16 0-8-10-16 0-8-10-16 0-8-10-16 0-8-10-16 0-8-10-16 0-8-10-16 0-8-10-16 0-8-10-16 0-8-10-16 0-8-10-16 0-8-10-16 0-8-10-16 0-8-10-16 0-8-10-16 0-8-10-16 0-8-10-16 0-8-10-16 0-8-10-16 0-8-10-16 0-8-10-16 0-8-10-16 0-8-10-16 0-8-10-16 0-8-10-16 0-8-10-16 0-8-10-16 0-8-10-16 0-8-10-16 0-8-10-16 0-8-10-16 0-8-10-16 0-8-10-16 0-8-10-16 0-8-10-16 0-8-10-16 0-8-10-16 0-8-10-16 0-8-10-16 0-8-10-16 0-8-10-16 0;
                  m764 105c-8 0-8 0-16 0s-8 0-16 0-8 0-16 0-8 0-16 0-8 0-16 0-8 0-16 0-8 0-16 0-8 0-16 0-8 0-16 0-8 0-16 0-8 0-16 0-8 0-16 0-8 0-16 0-8 0-16 0-8 0-16 0-8 0-16 0-8 0-16 0-8 0-16 0-8 0-16 0-8 0-16 0-8 0-16 0-8 0-16 0-8 0-16 0-8 0-16 0-8 0-16 0-8 0-16 0-8 0-16 0-8 0-16 0-8 0-16 0-8 0-16 0-8 0-16 0-8 0-16 0-8 0-16 0-8 0-16 0-8 0-16 0-8 0-16 0-8 0-16 0-8 0-16 0-8 0-16 0-8 0-16 0-8 0-16 0-8 0-16 0-8 0-16 0-8 0-16 0-8 0-16 0-8 0-16 0-8 0-16 0;
                  m764 105c-8 10-8-10-16 0s-8-10-16 0-8-10-16 0-8-10-16 0-8-10-16 0-8-10-16 0-8-10-16 0-8-10-16 0-8-10-16 0-8-10-16 0-8-10-16 0-8-10-16 0-8-10-16 0-8-10-16 0-8-10-16 0-8-10-16 0-8-10-16 0-8-10-16 0-8-10-16 0-8-10-16 0-8-10-16 0-8-10-16 0-8-10-16 0-8-10-16 0-8-10-16 0-8-10-16 0-8-10-16 0-8-10-16 0-8-10-16 0-8-10-16 0-8-10-16 0-8-10-16 0-8-10-16 0-8-10-16 0-8-10-16 0-8-10-16 0-8-10-16 0-8-10-16 0-8-10-16 0-8-10-16 0-8-10-16 0-8-10-16 0-8-10-16 0-8-10-16 0-8-10-16 0-8-10-16 0-8-10-16 0"
              attributeName="d"
              dur="4s"
              begin="0s"
              fill="remove"
              repeatCount="indefinite"/>
    </path>
  </g>
</svg>